<?xml version="1.0" encoding="UTF-8"?>
<!DOCTYPE svg  PUBLIC '-//W3C//DTD SVG 1.1//EN'  'http://www.w3.org/Graphics/SVG/1.1/DTD/svg11.dtd'>
<svg clip-rule="evenodd" fill-rule="evenodd" stroke-linejoin="round" stroke-miterlimit="2" version="1.1" viewBox="0 0 24 24" xml:space="preserve" xmlns="http://www.w3.org/2000/svg" xmlns:serif="http://www.serif.com/">
    <g id="path2" transform="matrix(.98782 0 0 1 .2679 13.756)">
        <path d="m3.622 3.1c0.889 0 1.621 0.733 1.621 1.624 0 0.892-0.732 1.625-1.621 1.625-0.89 0-1.622-0.733-1.622-1.625 0-0.891 0.732-1.624 1.622-1.624m3.243 0.541h15.135v2.167h-15.135v-2.167" fill-rule="nonzero" fill="#000"/>
    </g>
    <g id="path21" transform="matrix(.57478 0 0 1 9.3548 7.2727)" serif:id="path2">
        <path d="m6.865 3.641h15.135v2.167h-15.135v-2.167" fill-rule="nonzero" fill="#000"/>
    </g>
    <g id="path22" transform="matrix(.57478 0 0 1 9.3548 .79739)" serif:id="path2">
        <path d="m6.865 3.641h15.135v2.167h-15.135v-2.167" fill-rule="nonzero" fill="#000"/>
    </g>
    <g transform="translate(-11.258 -9.6014)">
        <path d="m21.7 18.6v-1l1.1-0.8c0.1-0.1 0.2-0.2 0.1-0.3l-1-1.7c0-0.1-0.2-0.1-0.3-0.1l-1.2 0.5c-0.3-0.2-0.6-0.4-0.9-0.5l-0.2-1.3c0-0.1-0.1-0.2-0.2-0.2h-2c-0.2 0-0.3 0.1-0.3 0.2l-0.2 1.3c-0.3 0.2-0.5 0.3-0.8 0.5l-1.2-0.5c-0.1 0-0.2 0-0.3 0.1l-1 1.7c0 0.1 0 0.2 0.1 0.3l1.1 0.8v1l-1.1 0.8c-0.1 0.1-0.2 0.2-0.1 0.3l1 1.7c0.1 0.1 0.2 0.1 0.3 0.1l1.2-0.5c0.2 0.2 0.5 0.4 0.8 0.5l0.2 1.3c0.1 0.1 0.2 0.2 0.3 0.2h2c0.1 0 0.2-0.1 0.2-0.2l0.2-1.3c0.3-0.2 0.5-0.3 0.8-0.5l1.2 0.4c0.1 0 0.2 0 0.3-0.1l1-1.7c0.1-0.1 0.1-0.2 0-0.2l-1.1-0.8m-3.7 0.9c-0.8 0-1.5-0.7-1.5-1.5s0.7-1.5 1.5-1.5 1.5 0.7 1.5 1.5-0.7 1.5-1.5 1.5" fill-rule="nonzero" fill="#000"/>
    </g>
</svg>
